<?xml version="1.0" encoding="UTF-8"?>
<svg id="Layer_1" xmlns="http://www.w3.org/2000/svg" xmlns:xlink="http://www.w3.org/1999/xlink" viewBox="0 0 219.99 257">
  <defs>
    <style>
      .cls-1 {
        filter: url(#drop-shadow-3);
      }

      .cls-2 {
        filter: url(#drop-shadow-7);
      }

      .cls-2, .cls-3, .cls-4, .cls-5, .cls-6, .cls-7, .cls-8, .cls-9, .cls-10, .cls-11 {
        stroke-miterlimit: 10;
      }

      .cls-2, .cls-3, .cls-4, .cls-5, .cls-6, .cls-7, .cls-9, .cls-10, .cls-11 {
        stroke: #231f20;
      }

      .cls-2, .cls-4, .cls-7, .cls-8, .cls-10, .cls-11 {
        stroke-width: 2px;
      }

      .cls-2, .cls-12, .cls-8 {
        fill: #184967;
      }

      .cls-3 {
        filter: url(#drop-shadow-9);
        stroke-width: 2.07px;
      }

      .cls-3, .cls-4 {
        fill: #2d6d90;
      }

      .cls-4 {
        filter: url(#drop-shadow-8);
      }

      .cls-13, .cls-14, .cls-10 {
        fill: #0f2e3f;
      }

      .cls-5, .cls-6, .cls-7, .cls-9, .cls-11 {
        fill: none;
      }

      .cls-12 {
        filter: url(#drop-shadow-5);
      }

      .cls-6 {
        filter: url(#drop-shadow-4);
      }

      .cls-8 {
        stroke: #000;
      }

      .cls-14 {
        filter: url(#drop-shadow-2);
      }

      .cls-9 {
        stroke-width: 3px;
      }

      .cls-15 {
        fill: #ff7726;
        filter: url(#drop-shadow-1);
      }

      .cls-10 {
        filter: url(#drop-shadow-6);
      }

      .cls-11 {
        filter: url(#drop-shadow-10);
      }
    </style>
    <filter id="drop-shadow-1" filterUnits="userSpaceOnUse">
      <feOffset dx="7" dy="7"/>
      <feGaussianBlur result="blur" stdDeviation="5"/>
      <feFlood flood-color="#000" flood-opacity=".2"/>
      <feComposite in2="blur" operator="in"/>
      <feComposite in="SourceGraphic"/>
    </filter>
    <filter id="drop-shadow-2" filterUnits="userSpaceOnUse">
      <feOffset dx="7" dy="7"/>
      <feGaussianBlur result="blur-2" stdDeviation="5"/>
      <feFlood flood-color="#000" flood-opacity=".2"/>
      <feComposite in2="blur-2" operator="in"/>
      <feComposite in="SourceGraphic"/>
    </filter>
    <filter id="drop-shadow-3" filterUnits="userSpaceOnUse">
      <feOffset dx="7" dy="7"/>
      <feGaussianBlur result="blur-3" stdDeviation="5"/>
      <feFlood flood-color="#000" flood-opacity=".2"/>
      <feComposite in2="blur-3" operator="in"/>
      <feComposite in="SourceGraphic"/>
    </filter>
    <filter id="drop-shadow-4" filterUnits="userSpaceOnUse">
      <feOffset dx="7" dy="7"/>
      <feGaussianBlur result="blur-4" stdDeviation="5"/>
      <feFlood flood-color="#000" flood-opacity=".2"/>
      <feComposite in2="blur-4" operator="in"/>
      <feComposite in="SourceGraphic"/>
    </filter>
    <filter id="drop-shadow-5" filterUnits="userSpaceOnUse">
      <feOffset dx="7" dy="7"/>
      <feGaussianBlur result="blur-5" stdDeviation="5"/>
      <feFlood flood-color="#000" flood-opacity=".2"/>
      <feComposite in2="blur-5" operator="in"/>
      <feComposite in="SourceGraphic"/>
    </filter>
    <filter id="drop-shadow-6" filterUnits="userSpaceOnUse">
      <feOffset dx="7" dy="7"/>
      <feGaussianBlur result="blur-6" stdDeviation="5"/>
      <feFlood flood-color="#000" flood-opacity=".2"/>
      <feComposite in2="blur-6" operator="in"/>
      <feComposite in="SourceGraphic"/>
    </filter>
    <filter id="drop-shadow-7" filterUnits="userSpaceOnUse">
      <feOffset dx="7" dy="7"/>
      <feGaussianBlur result="blur-7" stdDeviation="5"/>
      <feFlood flood-color="#000" flood-opacity=".2"/>
      <feComposite in2="blur-7" operator="in"/>
      <feComposite in="SourceGraphic"/>
    </filter>
    <filter id="drop-shadow-8" filterUnits="userSpaceOnUse">
      <feOffset dx="7" dy="7"/>
      <feGaussianBlur result="blur-8" stdDeviation="5"/>
      <feFlood flood-color="#000" flood-opacity=".2"/>
      <feComposite in2="blur-8" operator="in"/>
      <feComposite in="SourceGraphic"/>
    </filter>
    <filter id="drop-shadow-9" filterUnits="userSpaceOnUse">
      <feOffset dx="7.23" dy="7.23"/>
      <feGaussianBlur result="blur-9" stdDeviation="5.16"/>
      <feFlood flood-color="#000" flood-opacity=".2"/>
      <feComposite in2="blur-9" operator="in"/>
      <feComposite in="SourceGraphic"/>
    </filter>
    <filter id="drop-shadow-10" filterUnits="userSpaceOnUse">
      <feOffset dx="7" dy="7"/>
      <feGaussianBlur result="blur-10" stdDeviation="5"/>
      <feFlood flood-color="#000" flood-opacity=".2"/>
      <feComposite in2="blur-10" operator="in"/>
      <feComposite in="SourceGraphic"/>
    </filter>
  </defs>
  <path class="cls-15" d="M170.57,227.51c8.68,2.34,17.35,5.05,26.02,7.38h0s.5-100.04.5-100.04L104.56,62.56h0l.51,160.02h0c13.98-.24,30.93.02,43.29,1.61"/>
  <polyline class="cls-14" points="143.13 224.09 167.23 227.8 167.23 227.8 166.62 178.51 166.62 178.43 143.41 159.3 143.41 159.3 143.13 224.09"/>
  <line class="cls-1" x1="31.05" y1="149.39" x2="31.05" y2="231.43"/>
  <path class="cls-6" d="M104.05,61.48"/>
  <path class="cls-12" d="M181.83,121.99l.06-52.63v.24-.24L103.72,8.84l-62.91,50.54v72.06l43.24-27.19v12.55l-52.52,32.87-.48,81.76q17.54-3.91,32.29-5.83c14.23-2.15,42.44-3.06,42.44-3.06l-.52-159.61-.02-.74,76.21,59.49"/>
  <path class="cls-10" d="M72.3,225.14l-11.01,1.4h-.07s.03-56.51.03-56.51h0l10.67-6.65c0,.11.42,63.1.38,61.76"/>
  <polyline class="cls-7" points="181.01 121.65 104.99 62.25 104.71 62.05 105.5 222.53"/>
  <polyline class="cls-7" points="197.09 234.89 197.58 134.74 197.58 134.74 180.35 121.13 182.32 122.69 182.31 69.19 182.31 69.19 103.47 8.44 103.47 8.44 40.4 59.37 40.56 132.18 40.56 132.18 83.57 105.13 83.57 105.13 83.64 116.47 83.64 116.47 31.05 149.39 31.05 149.39 31.05 231.43"/>
  <polyline class="cls-2" points="167.66 227.43 166.97 178.1 166.97 178.1 143.13 158.62 143.14 158.87 142.86 224.09"/>
  <polyline class="cls-4" points="72.45 86.16 72.43 59.77 60.13 69.7 60.13 69.7 60.13 93.07 60.13 93.07 72.93 85.31"/>
  <polyline class="cls-3" points="140.9 50.92 169.04 72.5 169.26 72.67 170.07 99.8 170.07 99.8 141.72 78.05 141.72 78.05 141.35 51.72"/>
  <path class="cls-9" d="M.69,244.25c5.99-3.13,14.61-7.16,25.38-10.6,3.11-.99,13.28-4.13,33.76-6.95,20.83-2.86,37.08-3.3,42.57-3.4,20.1-.39,42.19-.22,69.38,5.36,11.36,2.33,27.3,7.05,45.79,15.52"/>
  <line class="cls-11" x1="39.84" y1="133.02" x2="52.24" y2="136.13"/>
  <polygon class="cls-13" points="82.64 115.92 52.06 135.05 41.92 132.51 82.57 106.93 82.64 115.92"/>
  <line class="cls-5" x1="62.35" y1="70.64" x2="62.41" y2="91.48"/>
  <line class="cls-5" x1="62.18" y1="71.04" x2="72.44" y2="63.15"/>
  <line class="cls-5" x1="64.73" y1="170.19" x2="64.73" y2="224.92"/>
  <line class="cls-5" x1="64.56" y1="170.57" x2="71.11" y2="166.21"/>
  <line class="cls-5" x1="163.69" y1="178.42" x2="164.18" y2="227.43"/>
  <line class="cls-5" x1="143.8" y1="162.47" x2="163.92" y2="178.8"/>
  <line class="cls-5" x1="166.85" y1="73.43" x2="167.52" y2="97.08"/>
  <line class="cls-5" x1="142" y1="54.7" x2="167.05" y2="73.81"/>
  <line class="cls-8" x1="104.71" y1="62.56" x2="103.88" y2="8.84"/>
</svg>