<?xml version="1.0" encoding="UTF-8"?>
<svg id="Layer_1" xmlns="http://www.w3.org/2000/svg" xmlns:xlink="http://www.w3.org/1999/xlink" viewBox="0 0 212.49 334.7">
  <defs>
    <style>
      .cls-1 {
        fill: url(#linear-gradient);
      }

      .cls-1, .cls-2 {
        stroke: #184967;
        stroke-miterlimit: 10;
        stroke-width: .69px;
      }

      .cls-2 {
        fill: #184967;
      }
    </style>
    <linearGradient id="linear-gradient" x1="60.19" y1="173.38" x2="115.45" y2="107.37" gradientUnits="userSpaceOnUse">
      <stop offset="0" stop-color="#ff7726"/>
      <stop offset=".52" stop-color="#184967"/>
    </linearGradient>
  </defs>
  <g>
    <path class="cls-2" d="M1.76,57.51c4.6,14.23,13.09,25.94,24.19,35.57,7.66,6.65,15.88,12.77,24.35,18.37,12.76,8.43,26.1,15.97,38.92,24.31,7.99,5.19,15.31,11.36,20.63,19.45,8.25,12.56,9.91,26,4.85,40.2-.19.53-.44,1.05-.7,1.56-.1.19-.29.33-.82.93-.16-1.2-.4-2.01-.36-2.8,1.03-20.12-8.51-34.71-24.62-45.3-10.86-7.15-22.3-13.43-33.57-19.94-13.44-7.76-26.22-16.42-36.95-27.72C8.79,92.77,2.19,82.03.57,68.91c-.46-3.76-.07-7.63-.07-11.45.42.02.84.03,1.26.05Z"/>
    <path class="cls-2" d="M20.12,124.06c1.14,1.37,2.2,2.81,3.43,4.1,12.95,13.65,28.71,23.21,45.39,31.55,9.14,4.57,18.29,9.31,26.8,14.92,7.84,5.17,12.31,13.2,13.3,22.64.54,5.22-.91,10.3-3.67,14.99.11-7.84-1.53-15.09-6.33-21.41-5.12-6.75-12.07-11.06-19.49-14.76-10.09-5.04-20.45-9.63-30.16-15.32-12.02-7.05-21.85-16.59-27.95-29.45-.82-1.74-1.37-3.6-2.02-5.42-.13-.36-.1-.77-.15-1.16l.85-.67Z"/>
  </g>
  <path class="cls-1" d="M208.89,78.44c-4.66-4.91-10.73-6.74-17.16-7.69-2.76-.41-5.07-1.07-6.79-3.73-3.24-4.99-8.03-8.29-13.87-9.3-7.3-1.26-14.69-1.94-22.05-2.82-6.35-.76-12.83-.94-19.03-2.32-4.87-1.09-9.41-3.63-14.51-5.69,2.82,12.13,12.9,14.31,22.65,17.04-15.75,16.56-15.1,36.26-11.18,57.22-10.96-13.53-23.55-24.27-37.25-33.78-15.02-10.43-31.15-19.22-44.97-31.43-15.13-13.37-24.33-29.02-21.06-50.05.23-1.48.03-3.02.03-5.1-5.72,5.18-8.73,11.11-9.51,17.97-1.82,15.87,3.78,29.06,14.78,40.4,13.13,13.53,28.4,24.13,44.58,33.56,18.85,10.98,35.76,24.32,50.01,40.94,14.16,16.53,16.53,34.45,6.89,53.74-4.12,8.25-10.56,14.63-17.04,21-10.51,10.32-20.2,21.31-27.15,34.42-5.97,11.26-8.9,23.29-5.67,35.78,1.98,7.65,5.63,14.9,8.91,22.16,3.05,6.74,6.62,13.24,6.37,21.02,2.09-4.87,3.7-9.92,2.52-15.15-1.46-6.43-3.21-12.84-5.5-19.01-5.16-13.92-3.68-27.33,2.12-40.6.12-.28.55-.42.99-.74-.39,3.07-.95,5.75-1.02,8.45-.27,10.38,3.42,19.67,8.1,28.69,7.37,14.22,10.24,28.8,3.17,44.09q-.2.44-.63,1.59c-.83,2.07-.83,2.82-1.21,4.91,10.98-6.64,16.71-16.66,16.91-29.2.15-9.44-.96-18.96-2.15-28.36-1.64-12.94.79-24.91,9.11-34.8,6.75-8.03,14.72-15.07,22.47-22.21,9.6-8.85,20.24-16.6,28.17-27.19,14.59-19.48,17.47-40.16,6.47-62.28-2.44-4.9-5.22-9.65-7.41-14.66-4.2-9.65-1.84-16.75,7.19-22.14,8.25-4.93,17.19-6.4,26.64-4.78.97-3.52-.02-6.92-2.9-9.95ZM177.04,87.94c-11.82,8.09-14.98,18.23-9.4,31.48,1.81,4.3,3.95,8.48,6.26,12.53,12.43,21.81,7.64,43.31-7.24,60.54-9.56,11.07-20.65,20.83-31.15,31.07-8.49,8.28-16.51,16.85-20.95,28.16-3.13,7.96-3.75,16.14-3.08,24.62-4.53-8.82-7.29-18.02-6.21-28.12,1.53-14.18,9.38-25.04,18.36-35.31,6.78-7.76,13.92-15.21,18.4-24.71,7.15-15.2,6.18-30.46,1.2-46-3.26-10.17-6.46-20.4-8.76-30.82-2.41-10.97-1.8-22.03,2.34-32.71,7.63-19.67,33.95-17.96,42.68-6.43-2.78,1.28-5.56,2.56-8.34,3.84.06.5.12,1,.17,1.5,8.28.58,16.56,1.15,24.84,1.73.02.28.04.56.06.84-6.9,1.41-13.36,3.8-19.2,7.8Z"/>
</svg>